<?xml version="1.0" encoding="utf-8"?>
<!-- Generator: Adobe Illustrator 24.0.1, SVG Export Plug-In . SVG Version: 6.00 Build 0)  -->
<svg version="1.1" id="Lavina_Icons" xmlns="http://www.w3.org/2000/svg" xmlns:xlink="http://www.w3.org/1999/xlink" x="0px"
	 y="0px" viewBox="0 0 24 24" style="enable-background:new 0 0 24 24;" xml:space="preserve">
<style type="text/css">
	.st0{fill:#E5E5E5;}
	.st1{fill:#BABABA;}
	.st2{fill:#878787;}
	.st3{fill:#80939B;}
	.st4{fill:#7AB7D2;}
	.st5{fill:#ededed;}
	.st6{display:none;fill:#7AB7D2;}
	.st7{fill:none;stroke:#ededed;stroke-miterlimit:10;}
	.st8{display:none;}
	.st9{display:inline;fill:#7AB7D2;}
	.st10{font-family:'Roboto-Condensed';}
	.st11{font-size:10.9252px;}
</style>
<rect x="3.3" y="3.6" class="st0" width="5.3" height="5.7"/>
<rect x="9.1" y="3.6" class="st1" width="5.3" height="5.7"/>
<rect x="15" y="3.6" class="st2" width="5.3" height="5.7"/>
<rect x="3.3" y="9.6" class="st1" width="5.3" height="5.7"/>
<rect x="9.1" y="9.6" class="st2" width="5.3" height="5.7"/>
<rect x="15" y="9.6" class="st3" width="5.3" height="5.7"/>
<rect x="3.3" y="15.5" class="st2" width="5.3" height="5.7"/>
<rect x="9.1" y="15.5" class="st3" width="5.3" height="5.7"/>
<rect x="15" y="15.5" class="st4" width="5.2" height="5"/>
<path class="st5" d="M19.9,19.6c0,0.4-0.3,0.7-0.7,0.7H3.7V4.8c0-0.4,0.3-0.7,0.7-0.7l15.5,0l1.2-1.3H4.4c-1.1,0-1.9,0.9-1.9,1.9
	v16.7h16.7c1.1,0,1.9-0.9,1.9-1.9V2.8l-1.2,1.3V19.6z"/>
<path class="st6" d="M12.5,1H8v1.2h4.1L6.6,7.7l0.9,0.9l5.3-5.3v3.8H14V2.6C14,1.7,13.3,1,12.5,1z"/>
<line class="st7" x1="8.8" y1="3.3" x2="8.8" y2="20.8"/>
<line class="st7" x1="20.6" y1="9.3" x2="3" y2="9.3"/>
<line class="st7" x1="20.6" y1="15.1" x2="3" y2="15.1"/>
<line class="st7" x1="14.7" y1="3.3" x2="14.7" y2="20.8"/>
<g class="st8">
	<text transform="matrix(1 0 0 1 3.2592 16.1744)" class="st9 st10 st11">LUT</text>
</g>
</svg>
