<svg width="32" height="32" viewBox="0 0 32 32" fill="none" xmlns="http://www.w3.org/2000/svg">
<path d="M15.9977 11.0976V18.3715M2.95688 24.3762L13.7575 3.95814C13.9733 3.55039 14.2961 3.20917 14.6913 2.97117C15.0864 2.73318 15.539 2.60742 16.0003 2.60742C16.4616 2.60742 16.9142 2.73318 17.3094 2.97117C17.7046 3.20917 18.0274 3.55039 18.2431 3.95814L29.0438 24.3762C29.2465 24.7615 29.3459 25.1927 29.3324 25.6279C29.3189 26.0631 29.1929 26.4874 28.9667 26.8594C28.7405 27.2314 28.4217 27.5384 28.0416 27.7506C27.6614 27.9628 27.2327 28.0729 26.7973 28.0701H5.19847C4.7635 28.072 4.33544 27.9613 3.95592 27.7488C3.5764 27.5363 3.25835 27.2291 3.03269 26.8573C2.80703 26.4854 2.68145 26.0615 2.66817 25.6267C2.65488 25.1919 2.75434 24.7611 2.95688 24.3762Z" stroke="#F3712B" stroke-width="2.5" stroke-linecap="round" stroke-linejoin="round"/>
<path d="M16 22.667H16.0133" stroke="#F3712B" stroke-width="3.5" stroke-linecap="round" stroke-linejoin="round"/>
</svg>
